<?xml version="1.0" encoding="UTF-8"?>
<svg id="Layer_1" xmlns="http://www.w3.org/2000/svg" version="1.1" viewBox="0 0 1366 768">
  <!-- Generator: Adobe Illustrator 30.1.0, SVG Export Plug-In . SVG Version: 2.1.1 Build 136)  -->
  <defs>
    <style>
      .st0 {
        fill: #f9f9fc;
      }
    </style>
  </defs>
  <g>
    <g>
      <path class="st0" d="M490.88,148.54h57.04l58.98,120.53v51.21s-2.72,28.43-14.75,28.85l-101.27-200.59Z"/>
      <path class="st0" d="M875.37,148.54h-57.04s-58.98,120.53-58.98,120.53v51.21s2.72,28.43,14.75,28.85l101.27-200.59Z"/>
      <path class="st0" d="M668.59,358.4l12.8,23.48,13.73-23.35s15.47,34.33,44.59,45.48l-24.91,44.63h-65.1s1.94-5.11-21.6-46.31c0,0,26.99-13.77,40.5-43.93Z"/>
    </g>
    <path class="st0" d="M873.96,103.97h-174.92s0,219.03,0,219.03c0,0-2.7,76.39,82.07,72.51,0,0,74.32,6.25,89.83-52.1,0,0,6.23-22.41,2.79-54.71h-49.16s3.76,39.02-3.38,52.42c0,0-7.37,20.98-44.37,20.13,0,0-18.23,1.99-24.3-19.82v-202.52h122.25s.82,0,.82,0v-34.94s-1.62,0-1.62,0Z"/>
    <path class="st0" d="M492.29,103.97h174.92v219.03s2.7,76.39-82.07,72.51c0,0-74.32,6.25-89.83-52.1,0,0-6.23-22.41-2.79-54.71h49.16s-3.76,39.02,3.38,52.42c0,0,7.37,20.98,44.37,20.13,0,0,18.23,1.99,24.3-19.82v-202.52h-123.06v-34.94h1.62Z"/>
  </g>
  <g>
    <path class="st0" d="M641.95,485.32c-.48,4.58-.86,9.17-1.46,13.73-1.63,12.52-3.35,25.04-5.05,37.55-2.77,20.37-5.56,40.74-8.32,61.11-2.42,17.81-4.81,35.63-7.19,53.45-.34,2.56-.57,5.13-.81,7.7-.13,1.35-.53,2.17-2.17,2.17-17.36-.06-34.71-.06-52.07-.08-.17,0-.34-.11-.78-.27-.72-5.23-1.45-10.59-2.18-15.95-2.85-20.92-5.7-41.84-8.54-62.76-2.39-17.63-4.79-35.26-7.15-52.89-1.87-13.98-3.68-27.96-5.49-41.95-.07-.57.23-1.19.36-1.79,12.19,0,24.38,0,36.58,0,.19.51.48,1.01.54,1.53,1.29,11.55,2.57,23.09,3.81,34.65,1.24,11.55,2.4,23.11,3.64,34.66,1.59,14.76,3.21,29.52,4.84,44.27.15,1.35.49,2.67.74,4.01,1.51-9.17,2.56-18.23,3.53-27.29,1.09-10.18,2.07-20.36,3.15-30.54,1.34-12.56,2.71-25.12,4.12-37.68.88-7.88,1.85-15.75,2.78-23.62,12.38,0,24.75,0,37.13,0Z"/>
    <path class="st0" d="M1081.42,663.22c-4.63-1.44-9.43-2.48-13.85-4.39-8.55-3.7-13.18-10.34-13.19-19.86,0-33.23.03-66.46-.02-99.7-.02-11.55,7.61-18,18.38-20.04,9.68-1.83,19.26-.94,28.59,4.11v-3.27c0-10.52-.02-21.05.03-31.57,0-1.06.36-2.12.56-3.18,11.27,0,22.54,0,33.81,0,.14.99.41,1.98.41,2.97.02,56.56.02,113.12,0,169.68,0,.97-.14,1.93-.22,3.03-7.24,0-14.16-.2-21.07.08-3.59.15-6.26-.51-7.64-4.09-.05-.12-.3-.17-.54-.29-1.21.72-2.38,1.66-3.72,2.17-4.01,1.54-8.07,2.91-12.12,4.35h-9.42ZM1089.32,590.82h-.01c0,13.75,0,27.5,0,41.25,0,1.02-.04,2.04.05,3.04.19,2.21.9,4.14,3.12,5.15,2.39,1.09,5.06,1.22,6.68-.72,1.31-1.57,2.08-4.09,2.09-6.19.13-28.43.09-56.85.07-85.28,0-1.1-.16-2.2-.32-3.29-.38-2.61-2.11-3.76-4.56-4.01-4.61-.48-7.08,1.72-7.1,6.56-.05,14.49-.02,28.98-.02,43.47Z"/>
    <path class="st0" d="M354.88,485.32c.04,11.54.08,23.09.12,34.63,0,.98,0,1.96,0,2.43,4.95-1.23,9.65-2.86,14.48-3.49,8.34-1.08,16.56-.62,23.99,4.21,5.57,3.62,8.4,8.62,8.5,15.21.05,3.05.03,6.1.03,9.14,0,36.48,0,72.96,0,109.44v3.84h-34.9c0-1.08,0-2.16,0-3.24,0-35.93,0-71.85,0-107.78,0-1.2.03-2.4-.04-3.6-.22-3.33-1.98-5.14-5.17-5.36-3.71-.26-5.88,1.12-6.6,4.39-.28,1.24-.27,2.56-.27,3.85-.01,36.11-.01,72.22-.01,108.34v3.48h-34.47c-.05-.94-.15-1.91-.15-2.88,0-56.52,0-113.05,0-169.57,0-1.01.09-2.03.13-3.04,11.45,0,22.91,0,34.36,0Z"/>
    <path class="st0" d="M1191.15,663.22c-4.62,0-9.24,0-13.85,0-3.08-.54-6.17-1.01-9.24-1.63-14.99-3.02-24.41-11.33-24.57-27.04-.29-29.18-.23-58.37-.02-87.56.09-12.67,6.98-21.93,18.44-25.4,14.1-4.27,28.41-4.38,42.61-.58,14.04,3.76,20.51,12.45,20.57,26.97.06,16.62-.03,33.25.06,49.88.01,2.29-.63,2.98-2.94,2.97-13.48-.1-26.97-.05-40.45-.05-1.07,0-2.13,0-3.23,0-.1,1-.2,1.54-.21,2.09,0,10.34-.02,20.69.01,31.03,0,1,.2,2.02.46,2.99.71,2.62,2.73,4.12,5.51,4.03,2.63-.09,4.7-1.14,5.31-3.92.35-1.61.57-3.28.58-4.92.06-7.85.03-15.7.03-23.55,0-1.08,0-2.16,0-3.26h34.61c.1.55.23.91.23,1.27-.02,9.97.21,19.96-.21,29.92-.16,3.75-1.22,7.73-2.89,11.1-4.36,8.79-12.54,12.25-21.61,14.06-3.06.61-6.15,1.09-9.23,1.62ZM1190.24,579.95c0-2.8,0-5.36,0-7.92-.02-8.31.08-16.62-.1-24.93-.1-4.47-2.14-6.39-5.98-6.35-3.67.04-5.73,1.91-5.77,5.95-.11,10.89,0,21.79.04,32.68,0,.15.18.3.35.57h11.46Z"/>
    <path class="st0" d="M909.62,663.22c-3.08-.54-6.17-1-9.23-1.62-9.28-1.89-17.63-5.55-21.71-14.73-1.82-4.09-2.87-8.86-2.91-13.34-.25-28.52-.2-57.05-.09-85.58.05-14.03,7-23.13,20.52-26.87,14.38-3.97,28.85-3.74,43.11.64,11.67,3.59,17.89,12.45,18.03,25.24.14,12.83.04,25.66.04,38.5,0,3.51.03,7.02,0,10.52-.06,5.47.69,4.75-4.63,4.77-12.83.03-25.66.01-38.5.01q-3.68,0-3.68,3.54c0,9.79-.04,19.57.02,29.36.03,4.75,2.05,7.17,5.78,7.26,2.93.07,4.95-1.37,5.62-4.24.33-1.42.45-2.92.46-4.38.04-7.94.02-15.88.02-23.82,0-1,0-2,0-3.22h34.67c.08.76.23,1.55.23,2.34.01,8.86.08,17.73-.03,26.59-.08,6.38-1.37,12.41-5.72,17.47-5.01,5.83-11.64,8.49-18.92,9.92-3.06.6-6.15,1.09-9.22,1.63h-13.85ZM922.38,579.94c0-11.39,0-22.46-.02-33.53,0-.63-.26-1.26-.41-1.89-.57-2.39-2.19-3.52-4.54-3.75-4.38-.42-6.78,1.76-6.82,6.6-.09,10.34-.03,20.68-.02,31.03,0,.51.21,1.02.33,1.54h11.47Z"/>
    <path class="st0" d="M266.2,663.22c-3.27-.54-6.55-.99-9.79-1.65-8.34-1.7-15.82-4.91-20.78-12.34-3.2-4.79-4.17-10.2-4.18-15.8-.04-28.43-.09-56.86.01-85.29.05-14.33,6.96-23.29,20.93-27.11,13.46-3.68,27.01-3.75,40.33.6,3.88,1.27,7.65,3.27,11.04,5.59,6.47,4.42,9.48,11.01,9.5,18.73.1,29.91.23,59.82-.03,89.72-.13,15-9.46,22.93-23.95,25.91-3.05.63-6.14,1.1-9.21,1.64h-13.85ZM278.38,590.9c0-14.68.03-29.36-.02-44.04-.01-3.84-2.12-5.99-5.66-6.11-3.79-.13-6.03,1.83-6.41,5.69-.11,1.1-.06,2.21-.06,3.32,0,27.33,0,54.66,0,81.99,0,1.2-.05,2.41.1,3.6.36,2.95,2.1,4.91,4.71,5.47,4.15.89,7.32-1.94,7.33-6.7.03-14.4.01-28.81,0-43.21Z"/>
    <path class="st0" d="M670.76,663.22c-2.33-.53-4.66-1.07-6.98-1.6-9.64-2.19-15.5-8.72-15.83-18.66-.35-10.7-.35-21.43-.01-32.13.3-9.71,6.3-16.11,14.07-20.87,8.23-5.04,16.75-9.61,25.11-14.44,1.75-1.01,3.6-2.03,4.96-3.46,1.18-1.24,2.4-3.05,2.46-4.66.26-6.64.16-13.29.06-19.94-.04-2.42-.4-4.87-2.96-6.12-3.5-1.71-6.82-.08-8.15,3.98-2.24,6.85-1.6,13.87-1.26,20.87.14,2.93.43,5.85.67,9.04h-33.4c-.11-.17-.29-.32-.29-.46-.01-10.71-.37-21.43.11-32.12.44-9.75,8.27-18.36,18.49-21.16,14.33-3.93,28.72-4.38,43.13-.18,10.35,3.02,17.64,11.9,18.48,22.78.17,2.21.19,4.43.19,6.64.01,35.55,0,71.1,0,106.65v3.43h-30.88c-.1-1.27-.2-2.52-.35-4.49-4.33,5.33-10.41,5.47-16,6.89h-11.64ZM694.67,598.55c-7.31.96-12.33,5.14-11.91,11.95.47,7.71.09,15.48.13,23.22,0,1.18.1,2.4.41,3.54.75,2.78,3.01,3.57,5.52,3.64,2.5.07,4.61-.87,5.28-3.51.41-1.58.54-3.27.55-4.91.05-9.59.02-19.17.02-28.76,0-1.64,0-3.28,0-5.16Z"/>
    <path class="st0" d="M224.64,485.32c0,48.52-.01,97.03,0,145.55,0,8.21-1.88,15.77-7.91,21.7-5.3,5.21-11.97,7.75-19.18,9.03-2.98.53-5.95,1.07-8.93,1.61h-13.3c-.87-.23-1.74-.56-2.63-.69-6.36-.93-12.35-2.87-17.93-6.09-8.71-5.03-13.82-12.1-13.66-22.61.2-13.2.11-26.4,0-39.61-.02-2.5.63-3.38,3.24-3.34,9.32.14,18.65.05,27.97.06.9,0,1.79.1,2.99.17,0,1.18,0,2.18,0,3.17,0,13.2-.01,26.4.01,39.61,0,3.18,1.53,4.7,4.71,4.87,4.3.23,5.9-1.35,5.9-5.91,0-48.01,0-96.02.02-144.02,0-1.17.29-2.33.45-3.5h38.24Z"/>
    <path class="st0" d="M772.18,485.32c.18,1.07.51,2.14.51,3.21.03,56.41.02,112.82.02,169.24v2.98h-34.79c-.05-.95-.13-1.85-.13-2.75,0-56.5,0-113.01.02-169.51,0-1.06.37-2.11.56-3.17,11.27,0,22.54,0,33.81,0Z"/>
    <path class="st0" d="M409.7,519.23h34.62c.1,1.38.2,2.72.31,4.32,2.01-.95,3.79-2.05,5.72-2.66,11.24-3.53,22.26-3.93,32.76,2.57,4.62,2.86,7.27,6.94,8,12.26.23,1.64.23,3.32.24,4.98.01,38.88,0,77.76,0,116.63v3.46h-34.93v-3.81c0-35.46,0-70.92,0-106.38,0-1.11.03-2.22-.02-3.32-.2-4.62-2.01-6.55-6.06-6.53-4.06.02-5.82,1.96-5.83,6.67-.03,18.75-.02,37.49-.02,56.24,0,17.92,0,35.83,0,53.75v3.42h-34.8v-141.59Z"/>
    <path class="st0" d="M870.62,519.55c-8.48,47.02-16.96,94.05-25.47,141.26h-42.15c-8.51-47.03-17.03-94.15-25.58-141.39.63-.11,1.07-.26,1.51-.26,10.53-.01,21.05.03,31.58-.05,1.73-.01,2.25.74,2.45,2.21,1.71,12.05,3.43,24.09,5.15,36.14,1.57,10.95,3.14,21.9,4.69,32.85.45,3.13.84,6.27,1.27,9.4.27,0,.53.01.8.02.32-1.91.68-3.82.95-5.74,2.4-16.89,4.79-33.77,7.15-50.67,1.02-7.3,1.98-14.61,2.92-21.93.16-1.29.21-2.29,1.97-2.28,10.53.07,21.05.04,31.58.06.26,0,.52.15,1.18.36Z"/>
    <path class="st0" d="M1000.86,660.83h-34.67v-141.5h34.36c.19,1.28.4,2.66.66,4.4,7.37-4.81,15.39-5.6,23.56-5.15,8.17.45,15.43,3.26,20.09,10.35,1.63,2.49,2.69,5.82,2.76,8.79.3,13.02.15,26.04.15,39.06,0,.26-.11.53-.22.99h-34.76c0-2.01,0-3.92,0-5.83-.01-8.59.04-17.18-.07-25.77-.04-3.5-1.97-5.28-5.34-5.43-3.85-.17-5.83,1.34-6.34,4.99-.19,1.36-.18,2.76-.18,4.14,0,35.65,0,71.3,0,106.95v3.99Z"/>
  </g>
</svg>