<?xml version="1.0" encoding="UTF-8"?>
<svg id="Layer_1" xmlns="http://www.w3.org/2000/svg" version="1.1" viewBox="0 0 1920 1080">
  <!-- Generator: Adobe Illustrator 30.1.0, SVG Export Plug-In . SVG Version: 2.1.1 Build 136)  -->
  <defs>
    <style>
      .st0 {
        fill: #fff;
      }
    </style>
  </defs>
  <g>
    <g>
      <path class="st0" d="M148.54,670.68c-3.13-1.63-5.02-4.46-4.22-6.33,18.05-42.26,41.55-101.9,59.69-143.15-29.57,34.73-76.3,94.86-88.75,136.56-1.9,6.37-2.89,11.85-3.07,16.51-.72,17.92,10.38,23.63,26.55,20.51,8.09-1.56,17.45-5.32,27.24-10.88,62.38-35.37,154.24-141.09,177.83-207.17,3.58-10.02,5.37-18.45,5.65-25.47,1.21-30.11-25.36-34.46-58.12-28.14-36.01,6.94-79.49,26.76-101.72,39.37-48.54,27.52-89.91,62.83-95.27,87.81-.32,1.53-.51,2.95-.56,4.28-.45,11.22,8.52,15.63,20.76,18.33,3.19.71,6.24,3.2,6.84,5.58.58,2.38-1.52,3.73-4.71,3.03-17.72-3.92-35.3-13.65-34.58-31.42.06-1.58.27-3.22.64-4.94,5.63-26.21,47.94-62.64,97.47-90.74,30.07-17.06,67.4-33.52,100.49-39.9,8.66-1.67,17.03-2.65,24.9-2.76,25.8-.36,45.44,8,53.32,28.81,1.7,4.5,2.38,9.69,2.15,15.44-.32,7.86-2.34,16.77-5.78,26.42-23.95,67.05-116.62,173.66-179.89,209.54-9.47,5.37-19.03,8.93-28,10.66-26.47,5.1-47.86-5.74-46.76-33.25.21-5.12,1.19-10.81,3.06-17.09,15.27-51.17,81.47-131.83,119.86-171.76,2.73-4.71,4.99-7.87,6.67-9.08,1.14-.83,2.28-1.31,3.37-1.52,5.38-1.04,9.76,4.5,9.63,7.7-.03.68-.26,1.26-.73,1.65-2.33,2.21-5.2,5.09-8.52,8.54-29.07,51.49-54.33,126-78.32,182.45-.79,1.87-3.99,2.05-7.13.41Z"/>
      <path class="st0" d="M341.04,586.55c-.12,3.09.72,5.95,3.2,6.29,2.03.28,4.29.15,6.71-.32,23.29-4.49,62.86-40.49,78.08-56.1.41-.42.89-.66,1.42-.77,3.32-.64,8.48,4.28,8.34,7.72-.03.68-.26,1.31-.76,1.82-.14.15-48.77,50.01-80.5,56.13-1.49.29-2.94.48-4.35.56-17.15,1.03-23.29-6.91-22.84-18.13.88-21.88,26.84-56.23,45.16-60.73.23-.06.46-.11.69-.15,8.21-1.58,16.46,4.4,16.12,12.68-.08,2.03-.68,4.2-1.92,6.44-8.91,16-46.16,36.5-46.26,36.56-1.62.9-2.95,4.6-3.08,8.01ZM380.44,532.78c-7.93,3.79-18.77,15.12-26.35,25.75,9.79-6.67,24.07-17.59,26.35-25.75Z"/>
      <path class="st0" d="M498.49,521.95c3.38-.65,8.77,3.8,8.64,7.08-.02.6-.23,1.16-.67,1.64-19.36,17.41-74.19,95.53-85.7,98.29-.39.09-.77.17-1.14.24-9.94,1.91-14.29-3.89-13.83-15.29,1.23-30.73,44.1-131.87,67.29-186.61,6.74-15.92,11.81-27.87,13.69-33.01.33-.9,1.06-1.4,1.99-1.58,3.46-.66,9.78,3,9.64,6.45-.2,5.07-7.27,18.28-13.96,34.06-22.95,54.14-65.22,153.94-66.88,184.3,20.97-17.55,54.34-67.24,79.36-94.7.43-.47.97-.76,1.58-.87Z"/>
    </g>
    <path class="st0" d="M660.73,542.74c-8.83,9.36-14.69,12.82-18.73,13.6-6.26,1.21-8.15-4.03-9.94-3.68-.07.01-.14.03-.21.07-2.18-2.03-3-5.65-2.81-10.36.95-23.76,27.61-75.13,34.31-88.29-12.04-1.26-29.59-6.98-29.08-19.83.14-3.46,1.59-7.45,4.82-12.01,6.09-8.59,18.49-19.47,38.81-32.84,2.01-1.33,6.07-.45,9.04,1.97,2.99,2.41,3.76,5.44,1.75,6.77-17.89,11.78-40.95,29.42-41.39,40.43-.27,6.7,16.24,6.12,20.92,6.08,25.87-49.3,61.41-106.47,96.86-150.42-15.98,8.21-143.88,83.2-145.2,115.97-.13,3.27,1,6.12,3.62,8.44,2.83,2.5,3.32,5.46,1.1,6.62-.37.19-.76.33-1.19.41-5.59,1.08-15.68-7.14-15.21-18.82.03-.64.08-1.28.17-1.94,6.3-45.66,135.38-115.59,176.64-133.99.47-.34,21.07-23.88,43.12-38.94.46-.31.97-.52,1.53-.62,4.22-.81,10.6,4,10.47,7.35-.03.75-.38,1.42-1.14,1.94-6.85,4.67-13.89,10.35-21.02,16.85,13.79-5.05,30.97-10.61,48.25-13.93,30.11-5.8,60.52-4.85,73.87,17.34,4.34,7.22,6.07,14.75,5.76,22.39-1.3,32.35-38.99,66.71-68.11,88.26-41.99,31.09-96.94,58.71-144.55,72.91-25.82,38.33-54.12,78.82-72.45,98.27ZM705.61,451.31c-9.42,1.81-18.22,2.89-26.49,3.2-20.61,39.31-34.82,72.34-37.74,87.69,22.51-19.3,54.39-67.95,70.96-92.29-2.28.51-4.52.97-6.73,1.4ZM808.19,304.64c3.91-.75,10.75,3.58,10.61,7.19-.02.47-.15.92-.42,1.35-.18.29-35.91,57.36-74.55,115.37,51.22-18.41,176.62-82.67,188.32-144,.51-2.7.81-5.2.9-7.53,1.11-27.66-26.43-30.14-57.75-24.1-30.14,5.81-63.79,19.49-78.78,26.19-42.8,46.93-82.15,109.77-111.59,164.47,4.24-.52,8.65-1.22,13.18-2.09,7.63-1.47,15.64-3.43,23.89-5.83,42.02-62.47,83.93-129.39,84.11-129.69.47-.74,1.2-1.17,2.07-1.33Z"/>
    <g>
      <path class="st0" d="M846.27,463.27c-15.66,7.42-37.12,27.2-37.75,42.77-.06,1.37.05,2.72.34,4.02,16.37-4.57,50-46.14,50.1-46.27.97-1.19,2.06-1.82,3.18-2.04,4.55-.88,9.66,5.06,9.55,7.78-.01.33-.11.62-.29.84-.98,5.48-1.53,10.13-1.69,14.01-.16,4.09.11,7.33.8,9.79.42,1.51,1.89,1.91,4.1,1.48,12.83-2.47,50.85-32.9,56.4-37.27.48-.38,1.03-.61,1.62-.72,3.99-.77,9.9,4.02,9.76,7.46-.03.75-.35,1.44-1.05,1.99-16.47,12.99-41.23,34.72-59.33,38.21-1.97.38-3.86.54-5.64.46-11.27-.55-17.96-6.82-19.37-18.4-12.32,13.33-30.13,30.52-41.8,32.77-.54.1-1.07.18-1.59.21-8.04.61-15.46-4.78-17.45-12.72-.48-1.91-.66-3.88-.58-5.87.76-18.83,24.91-40.29,40.89-47.77,1.92-.89,3.79-1.52,5.6-1.87,4.87-.94,9.25.16,12.49,3.61,2.15,2.3,2.77,5.06,1.42,8.22-1.36,3.14-7.42,1.08-9.71-.69ZM852.24,427.12c-2.36.82-3.07-.62-1.56-3.23,2.35-4.04,6.5-5.52,7.16-6.59,1.69-2.74,2.81-6.39,3.27-9.57.26-1.97,2.76-5.1,5.57-7.02,2.81-1.9,4.86-1.88,4.59.08-1.39,9.91-8.45,22.68-19.02,26.33Z"/>
      <path class="st0" d="M1032.26,450.36c-16.27,18.25-72,94.55-89.85,91.94-3.81-.56-7.54-2.86-9.73-5.84-8.5-11.68,21.25-59.68,29.83-76.87-12.25,5.98-25.2,10.05-35.11,5.1-17.57-8.77-5.19-38.11,8.97-44.67,8.5-3.93,17.82,2.44,19.14,10.01.78,4.4-.55,11.57-5.28,21.5,4.46-2.06,13.72-8.05,17.41-8.55,6.09-.81,9.93,1.59,11.84,6.75,3.51,9.52-32.1,63.24-36.08,81.12,18.54-11.82,61.03-68.58,79.35-89.14,3.62-4.06,13.09,4.64,9.52,8.65ZM942.37,432.02c-2.65,2.57-5.42,6.53-7.81,11.85-.33.72-4.71,12.05-3.52,12.97,6.87-11.04,10.26-19.24,11.33-24.82Z"/>
      <path class="st0" d="M1068.61,421.92c-.65-.34-1.26-.73-1.81-1.14-15.65,7.43-37.11,27.19-37.73,42.77-.05,1.36.05,2.68.33,3.97,17.26-5.61,50.01-46.1,50.11-46.22.98-1.21,2.08-1.85,3.2-2.06,4.55-.88,9.59,5.07,9.47,7.85-.01.31-.09.58-.24.8-.24,1.38-.88,8.64-1.12,14.6-.18,4.37-.14,8.04.41,8.19,1.15.31,2.49.3,3.99,0,18.54-3.57,61.37-49.85,71.23-60.97,1.71-2.2,3.66-3.36,5.53-3.72,4.28-.82,8.18,2.49,8,6.92-.05,1.32-.47,2.75-1.36,4.19-3.39,6.79-13.37,26.96-21.42,44.63,10.49-14.31,56.86-73.54,70.58-76.18.5-.1.95-.12,1.36-.06,8.83,1.23,11.34,7.42,11.03,15.08-.33,8.26-3.94,18.24-6.42,25.57,6.58-6.33,15.58-14.43,22.79-15.82.39-.08.77-.13,1.15-.17,8.43-.76,14.9,5.82,15.88,13.99.16,1.36.2,2.75.14,4.17-.26,6.47-2.41,13.36-2.76,18.77,15.44-4,43.54-33.01,57.09-45.13.49-.44,1.09-.71,1.76-.84,4.1-.79,10.67,3.89,10.54,7.32-.03.65-.3,1.26-.87,1.77-13.56,12.13-44.53,43.51-62.16,46.91-.98.19-1.93.29-2.83.3-5.82.04-11.07-2.54-14.03-6.59-1.92-2.62-2.43-5.77-2.29-9.16.26-6.4,2.82-13.67,2.59-19.94-14.3,8.16-38.74,37.69-41.16,40.63-.53.75-1.29,1.17-2.19,1.34-4.02.77-10.67-3.57-10.52-7.23.01-.35.09-.7.24-1.03.06-.12,16.08-36.36,19.6-55.33-13.16,13.17-73.61,92.13-85.84,94.49-.18.04-.35.05-.51.06-.06-.62-7.36-3.63-7.2-7.51.21-5.34,6.77-21.13,14.08-37.23-12.96,12.27-30.78,27.42-45.36,30.23-3.25.63-6.33.64-9.16-.13-7.9-2.14-12.85-7.35-14.52-15.8-11.49,12.55-29.8,31.05-42.31,33.46-.46.09-.92.16-1.37.2-8.23.8-15.83-4.72-17.82-12.7-.48-1.91-.67-3.88-.59-5.87.76-18.82,24.91-40.28,40.89-47.77,1.44-.67,2.97-1.15,4.51-1.45,7.78-1.5,16.06,1.61,15.8,8.06-.04,1.03-.3,2.15-.81,3.35-.88,2.06-4.42,2.26-7.89.45Z"/>
      <path class="st0" d="M1333.64,373.63c.46-11.43,12.01-19.18,23.7-21.43,7.68-1.48,15.43-.59,20.13,3.19,4.79,3.86,7.14,10.18,6.84,17.65-.19,4.63-1.39,9.7-3.65,14.89,9.93-3.8,24.85-11.71,37.41-23.89.49-.48,1.08-.76,1.73-.88,3.77-.73,9.53,3.96,9.39,7.47-.03.71-.3,1.37-.87,1.93-17.19,16.58-34.98,24.85-48.98,27.55-1.76.34-3.46.59-5.1.76-14.17,24.07-29.18,32.16-40.06,34.26-9.63,1.86-16.02-.99-15.72-1.59-6.7-3.51-9.16-9.13-8.9-15.66.56-13.95,13.55-32,24.12-42.19-.05-.69-.06-1.38-.04-2.05ZM1322.31,422.02c-.24,2.07-.33,3.57-.15,4.15,1.7.47,3.52.49,5.41.12,10.32-1.99,22.86-15.26,30.54-26.52-7.64-1.99-13.77-5.74-18.04-10.42-7.03,8.41-16.57,22.72-17.75,32.66ZM1353.36,376.15c-.09,2.21-4.1,3.47-6.39,5.66,1.8,6.85,8.79,9.36,16.35,9.51,3.77-6.82,8.13-17.18,8.42-24.5.09-2.3-.22-4.3-1.07-5.8-.16-.28-.94-.28-2.14-.05-4.74.91-15.88,5.46-19.41,10.46,3.18,2.06,4.29,3.54,4.24,4.74Z"/>
    </g>
  </g>
  <path class="st0" d="M1821.03,507.37c1.39,4.98-1.26,11.1-5.91,13.65-4.67,2.56-9.57.59-10.95-4.39-1.39-4.98,1.26-11.08,5.93-13.65,4.65-2.55,9.55-.6,10.93,4.39ZM1824.84,225.27c3.73-2.05,12.79.23,12.46,4.56l-17.12,247.73c-.08,1.02-.67,1.77-1.57,2.26-3.74,2.05-12.79-.22-12.47-4.56l17.14-247.74c.07-1.03.66-1.77,1.56-2.26Z"/>
  <g>
    <path class="st0" d="M534.42,663.29c3.56-.69,10.3,3.5,8.95,6.95-.07.18-8.8,22.78-20.02,52.05.86-.64,1.77-1.29,2.72-1.94.48-.54,19.41-39.3,28.02-46.85,1.11-.97,2.38-1.54,3.73-1.81,6.23-1.2,14.27,4.23,16.59,8.08,2.01,3.35,2.83,7.54,2.64,12.22-.06,1.56-.24,3.17-.52,4.82,14.05-5.16,24.9-8.45,25-8.48.16-.04.32-.08.48-.11,4.04-.78,9.04,3.55,8.93,6.32-.03.86-.56,1.57-1.75,1.93-.12.03-17.06,5.2-36,12.05-6.13,15.76-20.27,36.13-36.75,39.3-3.37.65-6.84.58-10.36-.39-10.92,22.23-22.21,46.18-31.42,65.73-8.49,18.01-15.28,32.4-19.56,38.66-.04.13-.08.27-.11.38-.1.33-.31.54-.62.64-1.19,1.59-2.17,2.42-2.88,2.38-5.29-.33-7.95-2.24-7.81-5.88.03-.69.15-1.44.39-2.26,5.51-19.41,68.28-181.87,68.48-182.34.32-.83,1-1.29,1.87-1.46ZM529.84,739.85c10.31-1.96,21.58-16.09,26.85-25.07-6.54,2.62-12.81,5.32-18.2,7.96-2.8,5.44-5.7,11.18-8.65,17.11ZM562.76,702.12c1.06-2.86,3.04-9.89,3.26-15.26.13-3.15-.36-5.72-2-6.53-.05-.02-.1-.03-.16-.01-2.47.48-17.46,27.41-18.52,29.39,5.66-2.69,11.59-5.24,17.42-7.58Z"/>
    <path class="st0" d="M636.44,674.34c-13.36,6.33-31.66,23.21-32.2,36.49-.05,1.17.04,2.32.29,3.43,13.97-3.9,42.65-39.36,42.74-39.47.83-1.01,1.75-1.55,2.71-1.74,3.88-.75,8.24,4.32,8.15,6.64-.01.28-.09.53-.24.71-.83,4.67-1.3,8.64-1.44,11.95-.14,3.49.1,6.25.68,8.36.36,1.29,1.61,1.63,3.49,1.27,10.95-2.11,43.38-28.07,48.11-31.79.41-.32.88-.52,1.38-.62,3.41-.66,8.44,3.43,8.32,6.36-.03.64-.3,1.23-.89,1.7-14.05,11.08-35.17,29.62-50.62,32.59-1.68.32-3.29.46-4.81.39-9.62-.46-15.32-5.82-16.52-15.69-10.51,11.36-25.7,26.03-35.66,27.95-.46.09-.92.15-1.36.19-6.86.52-13.19-4.08-14.89-10.85-.41-1.63-.57-3.31-.5-5.01.64-16.07,21.25-34.37,34.88-40.76,1.63-.76,3.24-1.3,4.78-1.6,4.16-.8,7.89.14,10.65,3.08,1.84,1.97,2.36,4.31,1.21,7.01-1.16,2.68-6.33.92-8.28-.59Z"/>
    <path class="st0" d="M795.09,663.32c-13.87,15.57-61.42,80.67-76.65,78.43-3.25-.48-6.44-2.44-8.3-4.99-7.25-9.96,18.13-50.91,25.45-65.57-10.45,5.1-21.5,8.58-29.95,4.35-14.99-7.47-4.43-32.51,7.65-38.1,7.25-3.35,15.2,2.08,16.33,8.54.66,3.75-.47,9.87-4.51,18.34,3.8-1.75,11.71-6.86,14.85-7.29,5.19-.69,8.47,1.36,10.1,5.76,3,8.12-27.38,53.95-30.78,69.2,15.81-10.09,52.06-58.5,67.68-76.05,3.09-3.46,11.17,3.95,8.12,7.38ZM718.41,647.69c-2.26,2.19-4.62,5.57-6.66,10.11-.28.62-4.01,10.29-3,11.06,5.86-9.41,8.76-16.41,9.66-21.17Z"/>
    <path class="st0" d="M824.55,638.09c-13.36,6.33-31.67,23.2-32.2,36.49-.05,1.17.04,2.32.29,3.43,13.96-3.9,42.65-39.36,42.74-39.47.83-1.01,1.76-1.55,2.71-1.74,3.88-.75,8.24,4.32,8.15,6.64-.01.28-.09.53-.24.71-.83,4.67-1.3,8.64-1.43,11.95-.14,3.49.1,6.25.68,8.36.36,1.29,1.61,1.63,3.5,1.27,10.95-2.11,43.38-28.07,48.11-31.79.41-.32.88-.52,1.38-.62,3.41-.66,8.44,3.43,8.32,6.36-.03.64-.3,1.24-.9,1.7-14.05,11.08-35.17,29.62-50.62,32.59-1.68.32-3.29.46-4.81.39-9.62-.46-15.32-5.82-16.52-15.69-10.51,11.36-25.7,26.03-35.66,27.95-.46.09-.92.15-1.36.18-6.86.52-13.18-4.08-14.89-10.85-.41-1.63-.57-3.31-.5-5.01.64-16.07,21.25-34.37,34.88-40.75,1.63-.76,3.24-1.3,4.78-1.6,4.16-.8,7.89.14,10.65,3.08,1.84,1.97,2.36,4.31,1.21,7.01-1.16,2.68-6.33.92-8.28-.59Z"/>
    <path class="st0" d="M973.86,650.95c-.12,2.93.69,5.63,3.03,5.95,1.92.26,4.05.14,6.35-.3,22.03-4.25,59.45-38.3,73.85-53.05.38-.4.84-.63,1.34-.73,3.14-.61,8.02,4.05,7.89,7.3-.03.64-.25,1.24-.72,1.72-.13.14-46.12,47.3-76.14,53.08-1.41.27-2.78.45-4.11.53-16.22.98-22.03-6.54-21.6-17.15.83-20.7,25.39-53.18,42.71-57.44.22-.05.43-.1.65-.14,7.77-1.5,15.56,4.15,15.25,11.98-.08,1.92-.64,3.98-1.82,6.09-8.43,15.13-43.66,34.52-43.75,34.58-1.54.85-2.79,4.35-2.92,7.57ZM1011.13,600.09c-7.5,3.58-17.75,14.3-24.92,24.35,9.26-6.31,22.77-16.63,24.92-24.35Z"/>
    <path class="st0" d="M1122.76,589.85c3.2-.62,8.29,3.59,8.17,6.69-.02.57-.22,1.1-.64,1.55-18.31,16.46-70.16,90.36-81.06,92.96-.37.09-.72.16-1.07.23-9.4,1.81-13.51-3.68-13.08-14.47,1.17-29.06,41.71-124.73,63.64-176.5,6.37-15.05,11.17-26.36,12.95-31.23.31-.85,1-1.32,1.88-1.49,3.27-.63,9.25,2.83,9.12,6.1-.19,4.8-6.87,17.29-13.2,32.22-21.71,51.21-61.69,145.6-63.25,174.32,19.83-16.6,51.4-63.6,75.06-89.57.41-.45.92-.72,1.49-.82Z"/>
    <path class="st0" d="M1213.35,550.73c3.29-.64,9.19,2.95,9.07,6.11-.01.34-.1.68-.26,1-.04.1-10.53,20.95-18.83,39.12,10.98-13.92,45.47-57.8,56.14-63.21.94-.48,1.86-.8,2.75-.97,6.68-1.29,11.84,5.43,11.56,12.34-.23,5.78-2.69,13.99-5.59,22.47,6.61-6.34,13.47-12.29,19.79-13.51,3.93-.76,7.66.32,10.98,4.28,2.73,3.25,3.43,7.13,3.26,11.22-.21,5.26-1.84,10.86-2.42,15.87,13.1-3.28,37.32-28.24,48.8-38.53.38-.34.81-.54,1.28-.63,3.18-.61,7.93,4.04,7.8,7.27-.03.7-.29,1.33-.84,1.83-9.74,8.85-36,35.61-51.38,38.57-.89.17-1.74.26-2.56.27-4.35.02-8.29-1.66-10.94-4.39-2.47-2.55-3.1-5.74-2.96-9.21.22-5.49,2.39-11.64,2.28-16.93-11.86,6.53-33.11,32.2-35.2,34.74-.45.64-1.1,1-1.86,1.15-3.43.66-9.1-3.06-8.98-6.17.01-.3.08-.59.2-.87.05-.09,13-29.38,16.44-46.06-16.43,14.4-63.13,78.09-71.73,79.75-.19.04-.36.04-.51.02-2.82-.45-7.45-2.82-7.29-6.66.42-10.41,29.1-67.43,29.18-67.6.37-.73,1.02-1.14,1.82-1.29Z"/>
    <path class="st0" d="M1365.78,518.83c3.33-.64,9.16,3.08,9.04,6.14-.02.41-.14.8-.39,1.18-6.84,10.38-21.25,35.05-21.79,48.39-.04,1.02,0,1.97.13,2.85,14.16-7.55,40.42-45.11,49.46-58.94.87-1.32,1.94-2.01,3.06-2.22,3.77-.73,8.19,3.76,8.07,6.66-.02.51-.18.98-.52,1.36-1.39,3.91-8.35,26.87-8.77,37.42-.11,2.77.23,4.69,1.25,5.17.94.44,2.15.48,3.6.21,13.34-2.57,45.94-32.98,52.42-41.68.42-.56.99-.88,1.66-1.01,3.15-.6,8.28,3.13,8.16,6.15-.02.48-.17.94-.49,1.37-9.95,13.32-36.67,38.89-56.09,42.64-4.16.8-7.98.6-11.23-.93-6.79-3.19-10.24-9.54-9.83-19.72.03-.74.08-1.5.15-2.28-8.98,11.78-23.48,29.25-32.7,33.78-1,.49-2.01.82-3.01,1.02-4.39.85-8.68-.98-11.65-3.78-3.22-3.05-4.39-7.46-4.19-12.6.64-15.92,14.5-38.85,21.91-50.08.4-.61,1.01-.96,1.74-1.1Z"/>
    <path class="st0" d="M1474.63,500.68c3.3-.64,9.19,2.96,9.07,6.12-.01.34-.1.68-.27,1.01-.04.09-9.09,17.87-17.75,35.09,16.05-17.84,35.22-38.61,44.88-42.94,1.26-.56,2.51-.96,3.73-1.19,4.79-.92,9.18.58,12.22,3.65,2.95,2.99,3.6,9.02,3.35,15.47-.36,9.06-2.54,18.94-2.67,22.28-.03.66.03,1.06.19,1.15.13.08.33.09.58.04,5.84-1.13,42.63-34.68,45.79-37.74.35-.34.75-.54,1.17-.62,2.94-.57,7.2,4.61,7.05,8.11-.03.8-.29,1.5-.84,2.04-9.9,9.6-31.59,32.21-47.63,35.3-3.63.7-6.98.4-9.83-1.28-5.73-3.38-6.91-9.79-6.62-16.97.28-6.87,1.9-14.44,2.15-20.7.02-.61.04-1.21.03-1.8-17.4,7.69-63.63,68.32-71.07,69.75-6.26,1.21-9.4-1.52-9.19-6.65.17-3.96,29.28-59.87,33.84-68.85.37-.72,1.02-1.13,1.82-1.28Z"/>
    <path class="st0" d="M1631.86,479.26c-6.75,12.31-29.94,59.76-48.56,63.35-2.47.48-4.85.18-7.11-1.07-5.73-3.17-8.42-10.59-8.06-19.54.2-5.02,1.36-10.52,3.49-16.02,7.09-18.34,20.88-33.93,37.88-37.2,4.52-.87,9.27-.87,14.18.18,26.41-48.76,52.4-106.56,52.52-106.82.35-.76,1.01-1.19,1.85-1.35,3.28-.63,10.46,2.78,9.07,6.15-18.54,44.84-75.14,190.37-76.52,224.9-.07,1.68.23,2.87.17,4.21-.05,1.15-.81,1.79-1.93,2-3.03.58-8.6-1.95-9.14-5.65-.21-1.4-.27-3.03-.19-4.88.77-19.09,15.92-61.38,33.44-107.72-.37-.18-.72-.37-1.09-.53ZM1616.59,477.08c-20.17,3.89-38.18,36-38.82,51.78-.09,2.16.15,4.01.75,5.44,10.05-4.71,28.25-34.76,40.9-57.57-.95.05-1.89.17-2.83.35Z"/>
    <path class="st0" d="M1675.33,477.81c.39-9.75,10.24-16.36,20.22-18.28,6.55-1.26,13.16-.5,17.17,2.73,4.09,3.29,6.09,8.68,5.83,15.05-.16,3.95-1.18,8.27-3.11,12.71,8.47-3.24,21.2-9.99,31.91-20.38.42-.4.92-.64,1.47-.75,3.22-.62,8.13,3.38,8.01,6.37-.02.61-.25,1.17-.74,1.64-14.66,14.15-29.84,21.2-41.78,23.5-1.5.29-2.95.5-4.35.65-12.08,20.53-24.89,27.44-34.17,29.22-8.21,1.58-13.67-.84-13.41-1.36-5.71-2.99-7.81-7.79-7.59-13.36.48-11.9,11.55-27.3,20.58-35.99-.04-.59-.06-1.18-.03-1.75ZM1665.66,519.09c-.2,1.77-.28,3.04-.13,3.54,1.45.41,3,.42,4.61.11,8.81-1.7,19.5-13.02,26.05-22.62-6.52-1.7-11.75-4.9-15.39-8.89-6,7.17-14.14,19.38-15.14,27.87ZM1692.15,479.95c-.08,1.88-3.49,2.97-5.45,4.83,1.54,5.84,7.5,7.98,13.94,8.11,3.22-5.82,6.94-14.66,7.19-20.91.08-1.96-.18-3.67-.91-4.95-.13-.24-.81-.24-1.82-.05-4.04.78-13.55,4.66-16.56,8.92,2.71,1.75,3.66,3.01,3.62,4.04Z"/>
  </g>
</svg>